<svg width="220" height="48" viewBox="0 0 220 48" fill="none" xmlns="http://www.w3.org/2000/svg">
<g clip-path="url(#clip0_241_642)">
<mask id="mask0_241_642" style="mask-type:alpha" maskUnits="userSpaceOnUse" x="0" y="0" width="48" height="48">
<path d="M16.635 3.05069C20.7026 -1.0169 27.2974 -1.0169 31.365 3.05069L44.9493 16.635C49.0169 20.7026 49.0169 27.2974 44.9493 31.365L31.365 44.9493C27.2974 49.0169 20.7026 49.0169 16.635 44.9493L3.05069 31.365C-1.0169 27.2974 -1.0169 20.7026 3.05069 16.635L16.635 3.05069Z" fill="white" style="fill:white;fill-opacity:1;"/>
</mask>
<g mask="url(#mask0_241_642)">
<path d="M16.635 3.05069C20.7026 -1.0169 27.2974 -1.0169 31.365 3.05069L44.9493 16.635C49.0169 20.7026 49.0169 27.2974 44.9493 31.365L31.365 44.9493C27.2974 49.0169 20.7026 49.0169 16.635 44.9493L3.05069 31.365C-1.0169 27.2974 -1.0169 20.7026 3.05069 16.635L16.635 3.05069Z" fill="#FE00EC" style="fill:#FE00EC;fill:color(display-p3 0.9951 0.0000 0.9246);fill-opacity:1;"/>
<circle cx="14.5618" cy="9.57309" r="35.191" fill="url(#paint0_radial_241_642)"/>
<circle cx="42.6068" cy="31.6855" r="25.8876" fill="url(#paint1_radial_241_642)"/>
<circle cx="18.2022" cy="2.42703" r="23.0562" fill="url(#paint2_radial_241_642)"/>
<circle cx="17.1236" cy="46.3821" r="37.0787" fill="url(#paint3_radial_241_642)"/>
<ellipse cx="19.8938" cy="18.089" rx="11.4838" ry="11.4838" fill="url(#paint4_radial_241_642)"/>
<circle cx="28.0127" cy="23.6837" r="15.6351" fill="url(#paint5_radial_241_642)"/>
<path fill-rule="evenodd" clip-rule="evenodd" d="M26.7833 12.0826C29.0361 9.99491 32.6572 9.99491 34.91 12.0826C37.2092 14.2135 37.2092 17.7046 34.91 19.8355L30.7332 23.7063L34.91 27.5773C37.2092 29.7082 37.2092 33.1993 34.91 35.3302C32.6572 37.4179 29.0361 37.4179 26.7833 35.3302L23.9316 32.6872C23.3243 35.1452 20.9494 36.896 18.2431 36.896C15.1004 36.896 12.4045 34.5353 12.4045 31.4481V15.9647C12.4045 12.8775 15.1004 10.5168 18.2431 10.5168C20.9494 10.5168 23.3243 12.2676 23.9316 14.7255L26.7833 12.0826ZM18.2431 12.623C16.1041 12.623 14.5184 14.1976 14.5184 15.9647V31.4481C14.5184 33.2152 16.1041 34.7897 18.2431 34.7897C20.3821 34.7896 21.9675 33.2152 21.9675 31.4481V30.867L18.4239 27.5829C16.1247 25.452 16.1247 21.9608 18.4239 19.8299L21.9675 16.5457V15.9647C21.9675 14.1976 20.3821 12.623 18.2431 12.623ZM33.4809 13.6284C32.0346 12.288 29.6586 12.288 28.2124 13.6284L24.0816 17.4568V29.956L28.2124 33.7844C29.6586 35.1248 32.0346 35.1248 33.4809 33.7844C34.8806 32.4872 34.8806 30.4203 33.4809 29.1231L28.4703 24.4793C28.2553 24.28 28.133 23.9999 28.133 23.7063C28.133 23.4129 28.2553 23.1328 28.4703 22.9335L33.4809 18.2897C34.8806 16.9925 34.8806 14.9256 33.4809 13.6284ZM19.853 21.3756C18.4533 22.6728 18.4533 24.7399 19.853 26.037L21.9675 27.9968V19.4159L19.853 21.3756Z" fill="white" style="fill:white;fill-opacity:1;"/>
</g>
</g>
<path d="M162.051 32.3724C162.051 31.0176 163.095 29.9734 164.506 29.9734C165.918 29.9734 166.962 31.0176 166.962 32.3724V32.4288C166.962 33.7835 165.918 34.8278 164.506 34.8278C163.095 34.8278 162.051 33.7835 162.051 32.4288V32.3724Z" fill="#111111" style="fill:#111111;fill:color(display-p3 0.0661 0.0661 0.0661);fill-opacity:1;"/>
<path d="M154.353 32.6828V16.0312C154.353 14.8458 155.312 13.8862 156.498 13.8862C157.683 13.8862 158.643 14.8458 158.643 16.0312V32.6828C158.643 33.8682 157.683 34.8278 156.498 34.8278C155.312 34.8278 154.353 33.8682 154.353 32.6828Z" fill="#111111" style="fill:#111111;fill:color(display-p3 0.0661 0.0661 0.0661);fill-opacity:1;"/>
<path d="M142.025 34.9405C139.175 34.9405 136.832 33.3035 136.832 30.3119V30.2554C136.832 26.9533 139.344 25.4293 142.928 25.4293C144.452 25.4293 145.553 25.6833 146.626 26.0502V25.7962C146.626 24.0181 145.525 23.0303 143.38 23.0303C142.194 23.0303 141.235 23.1997 140.416 23.4537C140.162 23.5383 139.993 23.5666 139.796 23.5666C138.808 23.5666 138.017 22.8045 138.017 21.8167C138.017 21.0547 138.497 20.4056 139.175 20.1516C140.529 19.6436 141.997 19.3613 144.001 19.3613C146.343 19.3613 148.037 19.9822 149.109 21.0547C150.238 22.1836 150.746 23.8488 150.746 25.8809V32.7673C150.746 33.9244 149.815 34.8276 148.658 34.8276C147.416 34.8276 146.597 33.9527 146.597 33.0495V33.0213C145.553 34.1785 144.114 34.9405 142.025 34.9405ZM143.323 31.9771C145.327 31.9771 146.682 30.8763 146.682 29.3241V28.5621C145.948 28.2234 144.989 27.9976 143.944 27.9976C142.11 27.9976 140.981 28.7314 140.981 30.0861V30.1425C140.981 31.2997 141.94 31.9771 143.323 31.9771Z" fill="#111111" style="fill:#111111;fill:color(display-p3 0.0661 0.0661 0.0661);fill-opacity:1;"/>
<path d="M118.972 32.6828V16.0312C118.972 14.8458 119.932 13.8862 121.117 13.8862C122.303 13.8862 123.262 14.8458 123.262 16.0312V21.704C124.307 20.2929 125.746 19.2486 127.976 19.2486C131.503 19.2486 134.862 22.0145 134.862 27.0664V27.1229C134.862 32.1748 131.56 34.9407 127.976 34.9407C125.69 34.9407 124.278 33.8964 123.262 32.6828V32.711C123.262 33.8682 122.303 34.8278 121.117 34.8278C119.932 34.8278 118.972 33.8682 118.972 32.6828ZM126.875 31.2999C128.879 31.2999 130.572 29.6629 130.572 27.1229V27.0664C130.572 24.5546 128.879 22.8894 126.875 22.8894C124.871 22.8894 123.206 24.5546 123.206 27.0664V27.1229C123.206 29.6347 124.871 31.2999 126.875 31.2999Z" fill="#111111" style="fill:#111111;fill:color(display-p3 0.0661 0.0661 0.0661);fill-opacity:1;"/>
<path d="M109.212 32.6827V23.1998H109.043C108.055 23.1998 107.265 22.4377 107.265 21.4499C107.265 20.4621 108.055 19.6719 109.043 19.6719H109.212V18.7123C109.212 17.0471 109.635 15.8335 110.426 15.0433C111.216 14.253 112.373 13.8579 113.897 13.8579C114.574 13.8579 115.167 13.8861 115.647 13.9708C116.381 14.0837 117.114 14.7328 117.114 15.6924C117.114 16.652 116.324 17.4705 115.365 17.4705H114.998C114.01 17.4705 113.445 17.9785 113.445 19.1074V19.7001H115.308C116.296 19.7001 117.086 20.4621 117.086 21.4499C117.086 22.4377 116.296 23.1998 115.308 23.1998H113.502V32.6827C113.502 33.8681 112.542 34.8277 111.357 34.8277C110.172 34.8277 109.212 33.8681 109.212 32.6827Z" fill="#111111" style="fill:#111111;fill:color(display-p3 0.0661 0.0661 0.0661);fill-opacity:1;"/>
<path d="M96.964 32.6826V21.5063C96.964 20.3209 97.9236 19.3613 99.109 19.3613C100.294 19.3613 101.254 20.3209 101.254 21.5063V22.1836C101.875 20.716 102.891 19.3613 104.161 19.3613C105.487 19.3613 106.249 20.2362 106.249 21.4498C106.249 22.5788 105.516 23.2561 104.641 23.4537C102.468 23.9617 101.254 25.6269 101.254 28.6749V32.6826C101.254 33.868 100.294 34.8276 99.109 34.8276C97.9236 34.8276 96.964 33.868 96.964 32.6826Z" fill="#111111" style="fill:#111111;fill:color(display-p3 0.0661 0.0661 0.0661);fill-opacity:1;"/>
<path d="M85.9269 34.997C81.2419 34.997 77.7704 31.5256 77.7704 27.1792V27.1228C77.7704 22.7764 81.2701 19.2485 85.9834 19.2485C90.6684 19.2485 94.1398 22.72 94.1398 27.0663V27.1228C94.1398 31.4691 90.6402 34.997 85.9269 34.997ZM85.9834 31.2998C88.4388 31.2998 89.9064 29.4088 89.9064 27.1792V27.1228C89.9064 24.8932 88.2977 22.9458 85.9269 22.9458C83.4715 22.9458 82.0039 24.8367 82.0039 27.0663V27.1228C82.0039 29.3524 83.6126 31.2998 85.9834 31.2998Z" fill="#111111" style="fill:#111111;fill:color(display-p3 0.0661 0.0661 0.0661);fill-opacity:1;"/>
<path d="M60 32.6546V16.9061C60 15.6925 60.9596 14.7329 62.1732 14.7329C63.3868 14.7329 64.3464 15.6925 64.3464 16.9061V23.5385L72.3617 15.5796C72.898 15.0434 73.4342 14.7329 74.1962 14.7329C75.4098 14.7329 76.2001 15.6643 76.2001 16.7367C76.2001 17.4141 75.8896 17.9221 75.4098 18.3737L69.8499 23.5667L75.9178 31.187C76.2565 31.6103 76.5105 32.0619 76.5105 32.711C76.5105 33.9246 75.5791 34.8277 74.3091 34.8277C73.4624 34.8277 72.9544 34.4044 72.4746 33.7835L66.83 26.389L64.3464 28.7033V32.6546C64.3464 33.8682 63.3868 34.8277 62.1732 34.8277C60.9596 34.8277 60 33.8682 60 32.6546Z" fill="#111111" style="fill:#111111;fill:color(display-p3 0.0661 0.0661 0.0661);fill-opacity:1;"/>
<path d="M214.248 22.9867C214.248 23.5655 214.067 24.1353 213.705 24.696C213.344 25.2386 212.864 25.7632 212.268 26.2696C211.671 26.758 211.01 27.2192 210.287 27.6533C209.563 28.0874 208.84 28.4673 208.116 28.7929C207.393 29.1184 206.733 29.3807 206.136 29.5797C205.991 30.2851 205.919 30.9091 205.919 31.4517C205.919 31.7954 206 32.0396 206.163 32.1843C206.326 32.329 206.579 32.4013 206.923 32.4013C207.682 32.4013 208.487 32.2657 209.337 31.9944C210.187 31.7231 211.056 31.3703 211.942 30.9362C212.828 30.5021 213.678 30.0409 214.492 29.5525C215.306 29.0642 216.048 28.6029 216.717 28.1688C217.404 27.7347 217.974 27.382 218.426 27.1107C218.879 26.8394 219.177 26.7037 219.322 26.7037C219.539 26.7037 219.702 26.7761 219.81 26.9208C219.937 27.0474 220 27.2011 220 27.382C220 27.5267 219.774 27.8071 219.322 28.2231C218.888 28.6391 218.3 29.1275 217.558 29.6882C216.817 30.2308 215.985 30.7915 215.062 31.3703C214.14 31.9492 213.181 32.4918 212.186 32.9982C211.209 33.5047 210.26 33.9117 209.337 34.2192C208.433 34.5266 207.619 34.6804 206.895 34.6804C205.955 34.6804 205.222 34.3277 204.698 33.6223C204.173 32.9168 203.911 31.8225 203.911 30.3393C203.911 29.3445 204.038 28.3407 204.291 27.3278C204.562 26.3148 204.924 25.3472 205.376 24.4247C205.846 23.4841 206.362 22.6521 206.923 21.9286C207.501 21.187 208.107 20.6082 208.74 20.1922C209.373 19.7581 209.988 19.541 210.585 19.541C211.725 19.541 212.62 19.8575 213.271 20.4906C213.923 21.1237 214.248 21.9557 214.248 22.9867ZM206.706 27.4905C207.266 27.1469 207.845 26.7851 208.442 26.4053C209.039 26.0254 209.591 25.6366 210.097 25.2386C210.603 24.8407 211.01 24.4247 211.318 23.9906C211.643 23.5384 211.806 23.0772 211.806 22.6069C211.806 21.9376 211.445 21.603 210.721 21.603C210.269 21.603 209.79 21.8924 209.283 22.4712C208.795 23.0319 208.324 23.7645 207.872 24.6689C207.42 25.5733 207.031 26.5138 206.706 27.4905Z" fill="#417BB4" style="fill:#417BB4;fill:color(display-p3 0.2549 0.4824 0.7059);fill-opacity:1;"/>
<path d="M194.514 34.0022C194.243 34.0022 193.972 33.8032 193.7 33.4053C193.447 33.0073 193.257 32.4466 193.131 31.7231C193.004 30.9634 192.886 30.0952 192.778 29.1185C192.669 28.1418 192.579 27.1831 192.507 26.2426C192.434 25.302 192.38 24.47 192.344 23.7465C192.308 23.0229 192.289 22.5346 192.289 22.2814C192.289 21.3408 192.434 20.6444 192.724 20.1922C193.031 19.7219 193.42 19.4868 193.89 19.4868C194.216 19.4868 194.451 19.5772 194.596 19.7581C194.74 19.9209 194.813 20.3008 194.813 20.8976C194.813 21.2956 194.822 21.8111 194.84 22.4441C194.858 23.0772 194.885 23.7645 194.921 24.5061C194.957 25.3924 194.994 26.333 195.03 27.3278C195.066 28.3045 195.093 29.2722 195.111 30.2309C195.545 29.5074 196.043 28.7025 196.603 27.8162C197.182 26.9299 197.77 26.0255 198.367 25.103C198.964 24.1625 199.543 23.2671 200.103 22.417C200.664 21.5669 201.161 20.8253 201.596 20.1922C202.03 19.5592 202.364 19.0979 202.599 18.8085C202.907 18.4468 203.187 18.1935 203.441 18.0488C203.712 17.9041 203.947 17.8318 204.146 17.8318C204.417 17.8318 204.634 17.9313 204.797 18.1302C204.978 18.3292 205.068 18.6096 205.068 18.9713C205.068 19.1884 205.023 19.4325 204.933 19.7039C204.86 19.9571 204.725 20.2194 204.526 20.4907C204.037 21.2323 203.45 22.1005 202.762 23.0953C202.075 24.0901 201.36 25.1211 200.619 26.1883C199.877 27.2555 199.154 28.2955 198.448 29.3084C197.743 30.3032 197.128 31.1805 196.603 31.9402C195.681 33.3148 194.985 34.0022 194.514 34.0022Z" fill="#417BB4" style="fill:#417BB4;fill:color(display-p3 0.2549 0.4824 0.7059);fill-opacity:1;"/>
<path d="M186.239 34.8163C185.895 34.8163 185.588 34.6897 185.317 34.4364C185.045 34.1651 184.91 33.7491 184.91 33.1884C184.91 32.7905 184.964 32.2388 185.072 31.5334C185.181 30.8099 185.326 30.023 185.506 29.1729C185.687 28.3228 185.877 27.4817 186.076 26.6497C186.293 25.7996 186.51 25.0399 186.727 24.3706C186.944 23.7014 187.134 23.204 187.297 22.8784C187.442 22.6252 187.577 22.4624 187.704 22.39C187.849 22.3177 187.984 22.2815 188.111 22.2815C188.364 22.2815 188.581 22.3629 188.762 22.5257C188.961 22.6885 189.061 23.005 189.061 23.4753C189.061 23.7466 189.006 24.1988 188.898 24.8319C188.807 25.4469 188.681 26.1704 188.518 27.0024C188.373 27.8163 188.211 28.6574 188.03 29.5256C187.867 30.3758 187.704 31.1897 187.541 31.9675C187.379 32.7452 187.252 33.3964 187.161 33.9209C187.089 34.2103 186.962 34.4364 186.782 34.5992C186.619 34.7439 186.438 34.8163 186.239 34.8163ZM188.898 19.8126C188.482 19.8126 188.084 19.6859 187.704 19.4327C187.342 19.1795 187.161 18.7725 187.161 18.2118C187.161 17.7415 187.27 17.3617 187.487 17.0723C187.722 16.7829 187.993 16.5749 188.301 16.4483C188.627 16.3036 188.907 16.2312 189.142 16.2312C189.377 16.2312 189.639 16.2855 189.929 16.394C190.236 16.4844 190.499 16.6653 190.716 16.9366C190.933 17.1898 191.041 17.5697 191.041 18.0761C191.041 18.4198 190.924 18.7273 190.689 18.9986C190.453 19.2518 190.164 19.4508 189.82 19.5955C189.495 19.7402 189.187 19.8126 188.898 19.8126Z" fill="#417BB4" style="fill:#417BB4;fill:color(display-p3 0.2549 0.4824 0.7059);fill-opacity:1;"/>
<path d="M175.434 35.7657C174.042 35.7657 172.947 35.3135 172.151 34.4091C171.374 33.4867 170.985 32.2024 170.985 30.5565C170.985 29.5436 171.12 28.3588 171.392 27.0022C171.681 25.6276 172.043 24.1806 172.477 22.6612C172.929 21.1237 173.418 19.6044 173.942 18.1031C174.467 16.6018 174.973 15.2091 175.461 13.9249C175.968 12.6225 176.411 11.5373 176.791 10.6691C177.008 10.1807 177.315 9.93652 177.713 9.93652C178.256 9.93652 178.527 10.2711 178.527 10.9404C178.527 11.1574 178.428 11.6006 178.229 12.2698C178.03 12.9391 177.768 13.7711 177.442 14.7659C177.116 15.7427 176.764 16.8279 176.384 18.0217C176.004 19.2155 175.615 20.4455 175.217 21.7116C174.837 22.9596 174.485 24.1986 174.159 25.4286C173.834 26.6405 173.571 27.78 173.372 28.8472C173.173 29.9143 173.074 30.8278 173.074 31.5875C173.074 32.0758 173.2 32.4647 173.454 32.7541C173.725 33.0254 174.087 33.1611 174.539 33.1611C175.371 33.1611 176.203 32.9983 177.035 32.6727C177.885 32.3291 178.699 31.913 179.477 31.4247C180.747 30.5973 180.694 30.6649 181.916 29.7849C182.368 29.4412 182.685 29.2694 182.865 29.2694C183.263 29.2694 183.462 29.4864 183.462 29.9205C183.462 30.0652 183.318 30.3365 183.028 30.7345C182.408 31.5875 182.332 31.7844 181.485 32.6185C180.852 33.1611 180.182 33.6766 179.477 34.1649C178.79 34.6352 178.093 35.0151 177.388 35.3045C176.7 35.612 176.049 35.7657 175.434 35.7657Z" fill="#417BB4" style="fill:#417BB4;fill:color(display-p3 0.2549 0.4824 0.7059);fill-opacity:1;"/>
<defs>
<radialGradient id="paint0_radial_241_642" cx="0" cy="0" r="1" gradientUnits="userSpaceOnUse" gradientTransform="translate(14.5618 9.57309) rotate(90) scale(35.191)">
<stop stop-color="#F10004" style="stop-color:#F10004;stop-color:color(display-p3 0.9434 0.0000 0.0157);stop-opacity:1;"/>
<stop offset="1" stop-color="#F10004" stop-opacity="0" style="stop-color:none;stop-opacity:0;"/>
</radialGradient>
<radialGradient id="paint1_radial_241_642" cx="0" cy="0" r="1" gradientUnits="userSpaceOnUse" gradientTransform="translate(42.6068 31.6855) rotate(90) scale(25.8876)">
<stop stop-color="#6400D6" style="stop-color:#6400D6;stop-color:color(display-p3 0.3925 0.0000 0.8410);stop-opacity:1;"/>
<stop offset="1" stop-color="#6400D6" stop-opacity="0" style="stop-color:none;stop-opacity:0;"/>
</radialGradient>
<radialGradient id="paint2_radial_241_642" cx="0" cy="0" r="1" gradientUnits="userSpaceOnUse" gradientTransform="translate(18.2022 2.42703) rotate(90) scale(23.0562)">
<stop stop-color="#FFD900" style="stop-color:#FFD900;stop-color:color(display-p3 1.0000 0.8500 0.0000);stop-opacity:1;"/>
<stop offset="1" stop-color="#FFD900" stop-opacity="0" style="stop-color:none;stop-opacity:0;"/>
</radialGradient>
<radialGradient id="paint3_radial_241_642" cx="0" cy="0" r="1" gradientUnits="userSpaceOnUse" gradientTransform="translate(17.1236 46.3821) rotate(90) scale(37.0787)">
<stop stop-color="#00D39E" style="stop-color:#00D39E;stop-color:color(display-p3 0.0000 0.8263 0.6197);stop-opacity:1;"/>
<stop offset="1" stop-color="#00D39E" stop-opacity="0" style="stop-color:none;stop-opacity:0;"/>
</radialGradient>
<radialGradient id="paint4_radial_241_642" cx="0" cy="0" r="1" gradientUnits="userSpaceOnUse" gradientTransform="translate(19.8938 18.089) rotate(90) scale(11.4838)">
<stop stop-color="#CD0B1C" style="stop-color:#CD0B1C;stop-color:color(display-p3 0.8043 0.0434 0.1110);stop-opacity:1;"/>
<stop offset="1" stop-color="#CD0B1C" stop-opacity="0" style="stop-color:none;stop-opacity:0;"/>
</radialGradient>
<radialGradient id="paint5_radial_241_642" cx="0" cy="0" r="1" gradientUnits="userSpaceOnUse" gradientTransform="translate(28.0127 23.6837) rotate(90) scale(15.6351)">
<stop stop-color="#3B0751" style="stop-color:#3B0751;stop-color:color(display-p3 0.2309 0.0267 0.3194);stop-opacity:1;"/>
<stop offset="1" stop-color="#7910A6" stop-opacity="0" style="stop-color:none;stop-opacity:0;"/>
</radialGradient>
<clipPath id="clip0_241_642">
<rect width="48" height="48" fill="white" style="fill:white;fill-opacity:1;"/>
</clipPath>
</defs>
</svg>
