<svg viewBox="0 0 160 98" fill="none" xmlns="http://www.w3.org/2000/svg">
<g clip-path="url(#clip0_241_528)">
<mask id="mask0_241_528" style="mask-type:alpha" maskUnits="userSpaceOnUse" x="48" y="0" width="64" height="64">
<path d="M70.18 4.06758C75.6034 -1.35586 84.3966 -1.35586 89.82 4.06758L107.932 22.18C113.356 27.6034 113.356 36.3966 107.932 41.82L89.82 59.9324C84.3966 65.3559 75.6034 65.3559 70.18 59.9324L52.0676 41.82C46.6441 36.3966 46.6441 27.6034 52.0676 22.18L70.18 4.06758Z" fill="white" style="fill:white;fill-opacity:1;"/>
</mask>
<g mask="url(#mask0_241_528)">
<path d="M70.18 4.06758C75.6034 -1.35586 84.3966 -1.35586 89.82 4.06758L107.932 22.18C113.356 27.6034 113.356 36.3966 107.932 41.82L89.82 59.9324C84.3966 65.3559 75.6034 65.3559 70.18 59.9324L52.0676 41.82C46.6441 36.3966 46.6441 27.6034 52.0676 22.18L70.18 4.06758Z" fill="#FE00EC" style="fill:#FE00EC;fill:color(display-p3 0.9951 0.0000 0.9246);fill-opacity:1;"/>
<circle cx="67.4157" cy="12.7641" r="46.9213" fill="url(#paint0_radial_241_528)" style=""/>
<circle cx="104.809" cy="42.2473" r="34.5169" fill="url(#paint1_radial_241_528)" style=""/>
<circle cx="72.2697" cy="3.23596" r="30.7416" fill="url(#paint2_radial_241_528)" style=""/>
<circle cx="70.8315" cy="61.8427" r="49.4382" fill="url(#paint3_radial_241_528)" style=""/>
<circle cx="74.5251" cy="24.1186" r="15.3117" fill="url(#paint4_radial_241_528)" style=""/>
<circle cx="85.3503" cy="31.5782" r="20.8468" fill="url(#paint5_radial_241_528)" style=""/>
<path fill-rule="evenodd" clip-rule="evenodd" d="M83.7111 16.1102C86.7148 13.3266 91.543 13.3266 94.5467 16.1102C97.6122 18.9514 97.6122 23.6061 94.5467 26.4473L88.9776 31.6084L94.5467 36.7698C97.6122 39.611 97.6122 44.2657 94.5467 47.1069C91.543 49.8905 86.7148 49.8905 83.7111 47.1069L79.9088 43.5829C79.0991 46.8602 75.9326 49.1946 72.3241 49.1946C68.1339 49.1946 64.5393 46.0471 64.5393 41.9308V21.2863C64.5393 17.17 68.1339 14.0225 72.3241 14.0225C75.9326 14.0225 79.0991 16.3568 79.9088 19.634L83.7111 16.1102ZM72.3241 16.8307C69.4722 16.8307 67.3578 18.9301 67.3578 21.2863V41.9308C67.3578 44.2869 69.4722 46.3863 72.3241 46.3863C75.1761 46.3861 77.29 44.2869 77.29 41.9308V41.1559L72.5652 36.7772C69.4997 33.936 69.4997 29.2811 72.5652 26.4399L77.29 22.0609V21.2863C77.29 18.9301 75.1761 16.8307 72.3241 16.8307ZM92.6412 18.1711C90.7128 16.384 87.5448 16.384 85.6165 18.1711L80.1087 23.2757V39.9414L85.6165 45.0459C87.5448 46.8331 90.7128 46.8331 92.6412 45.0459C94.5075 43.3163 94.5075 40.5604 92.6412 38.8307L85.9604 32.6391C85.6737 32.3734 85.5106 31.9998 85.5106 31.6084C85.5106 31.2173 85.6737 30.8437 85.9604 30.578L92.6412 24.3863C94.5075 22.6567 94.5075 19.9008 92.6412 18.1711ZM74.4706 28.5008C72.6044 30.2305 72.6044 32.9866 74.4706 34.716L77.29 37.3291V25.8878L74.4706 28.5008Z" fill="white" style="fill:white;fill-opacity:1;"/>
</g>
</g>
<path d="M102.051 94.3724C102.051 93.0176 103.095 91.9734 104.506 91.9734C105.918 91.9734 106.962 93.0176 106.962 94.3724V94.4288C106.962 95.7835 105.918 96.8278 104.506 96.8278C103.095 96.8278 102.051 95.7835 102.051 94.4288V94.3724Z" fill="#111111" style="fill:#111111;fill:color(display-p3 0.0661 0.0661 0.0661);fill-opacity:1;"/>
<path d="M94.3529 94.6828V78.0312C94.3529 76.8458 95.3125 75.8862 96.4979 75.8862C97.6832 75.8862 98.6428 76.8458 98.6428 78.0312V94.6828C98.6428 95.8682 97.6832 96.8278 96.4979 96.8278C95.3125 96.8278 94.3529 95.8682 94.3529 94.6828Z" fill="#111111" style="fill:#111111;fill:color(display-p3 0.0661 0.0661 0.0661);fill-opacity:1;"/>
<path d="M82.0251 96.9405C79.1746 96.9405 76.8321 95.3035 76.8321 92.3119V92.2554C76.8321 88.9533 79.344 87.4293 82.9283 87.4293C84.4523 87.4293 85.553 87.6833 86.6255 88.0502V87.7962C86.6255 86.0181 85.5248 85.0303 83.3798 85.0303C82.1945 85.0303 81.2349 85.1997 80.4164 85.4537C80.1624 85.5383 79.9931 85.5666 79.7955 85.5666C78.8077 85.5666 78.0175 84.8045 78.0175 83.8167C78.0175 83.0547 78.4973 82.4056 79.1746 82.1516C80.5293 81.6436 81.9969 81.3613 84.0008 81.3613C86.3433 81.3613 88.0367 81.9822 89.1091 83.0547C90.2381 84.1836 90.7461 85.8488 90.7461 87.8809V94.7673C90.7461 95.9244 89.8147 96.8276 88.6576 96.8276C87.4158 96.8276 86.5973 95.9527 86.5973 95.0495V95.0213C85.553 96.1785 84.1137 96.9405 82.0251 96.9405ZM83.3234 93.9771C85.3272 93.9771 86.682 92.8763 86.682 91.3241V90.5621C85.9482 90.2234 84.9886 89.9976 83.9443 89.9976C82.1098 89.9976 80.9809 90.7314 80.9809 92.0861V92.1425C80.9809 93.2997 81.9405 93.9771 83.3234 93.9771Z" fill="#111111" style="fill:#111111;fill:color(display-p3 0.0661 0.0661 0.0661);fill-opacity:1;"/>
<path d="M58.9724 94.6828V78.0312C58.9724 76.8458 59.932 75.8862 61.1173 75.8862C62.3027 75.8862 63.2623 76.8458 63.2623 78.0312V83.704C64.3065 82.2929 65.7459 81.2486 67.9756 81.2486C71.5034 81.2486 74.862 84.0145 74.862 89.0664V89.1229C74.862 94.1748 71.5599 96.9407 67.9756 96.9407C65.6895 96.9407 64.2783 95.8964 63.2623 94.6828V94.711C63.2623 95.8682 62.3027 96.8278 61.1173 96.8278C59.932 96.8278 58.9724 95.8682 58.9724 94.6828ZM66.8748 93.2999C68.8787 93.2999 70.5721 91.6629 70.5721 89.1229V89.0664C70.5721 86.5546 68.8787 84.8894 66.8748 84.8894C64.871 84.8894 63.2058 86.5546 63.2058 89.0664V89.1229C63.2058 91.6347 64.871 93.2999 66.8748 93.2999Z" fill="#111111" style="fill:#111111;fill:color(display-p3 0.0661 0.0661 0.0661);fill-opacity:1;"/>
<path d="M49.2119 94.6827V85.1998H49.0426C48.0547 85.1998 47.2645 84.4377 47.2645 83.4499C47.2645 82.4621 48.0547 81.6719 49.0426 81.6719H49.2119V80.7123C49.2119 79.0471 49.6352 77.8335 50.4255 77.0433C51.2157 76.253 52.3729 75.8579 53.8969 75.8579C54.5743 75.8579 55.167 75.8861 55.6468 75.9708C56.3806 76.0837 57.1144 76.7328 57.1144 77.6924C57.1144 78.652 56.3241 79.4705 55.3645 79.4705H54.9976C54.0098 79.4705 53.4454 79.9785 53.4454 81.1074V81.7001H55.3081C56.2959 81.7001 57.0861 82.4621 57.0861 83.4499C57.0861 84.4377 56.2959 85.1998 55.3081 85.1998H53.5018V94.6827C53.5018 95.8681 52.5422 96.8277 51.3568 96.8277C50.1715 96.8277 49.2119 95.8681 49.2119 94.6827Z" fill="#111111" style="fill:#111111;fill:color(display-p3 0.0661 0.0661 0.0661);fill-opacity:1;"/>
<path d="M36.964 94.6826V83.5063C36.964 82.3209 37.9236 81.3613 39.109 81.3613C40.2943 81.3613 41.2539 82.3209 41.2539 83.5063V84.1836C41.8748 82.716 42.8909 81.3613 44.1609 81.3613C45.4874 81.3613 46.2494 82.2362 46.2494 83.4498C46.2494 84.5788 45.5156 85.2561 44.6407 85.4537C42.4675 85.9617 41.2539 87.6269 41.2539 90.6749V94.6826C41.2539 95.868 40.2943 96.8276 39.109 96.8276C37.9236 96.8276 36.964 95.868 36.964 94.6826Z" fill="#111111" style="fill:#111111;fill:color(display-p3 0.0661 0.0661 0.0661);fill-opacity:1;"/>
<path d="M25.9269 96.997C21.2419 96.997 17.7704 93.5256 17.7704 89.1792V89.1228C17.7704 84.7764 21.2701 81.2485 25.9834 81.2485C30.6684 81.2485 34.1398 84.72 34.1398 89.0663V89.1228C34.1398 93.4691 30.6402 96.997 25.9269 96.997ZM25.9834 93.2998C28.4388 93.2998 29.9064 91.4088 29.9064 89.1792V89.1228C29.9064 86.8932 28.2977 84.9458 25.9269 84.9458C23.4715 84.9458 22.0039 86.8367 22.0039 89.0663V89.1228C22.0039 91.3524 23.6126 93.2998 25.9834 93.2998Z" fill="#111111" style="fill:#111111;fill:color(display-p3 0.0661 0.0661 0.0661);fill-opacity:1;"/>
<path d="M0 94.6546V78.9061C0 77.6925 0.959585 76.7329 2.17318 76.7329C3.38677 76.7329 4.34636 77.6925 4.34636 78.9061V85.5385L12.3617 77.5796C12.898 77.0434 13.4342 76.7329 14.1962 76.7329C15.4098 76.7329 16.2001 77.6643 16.2001 78.7367C16.2001 79.4141 15.8896 79.9221 15.4098 80.3737L9.84986 85.5667L15.9178 93.187C16.2565 93.6103 16.5105 94.0619 16.5105 94.711C16.5105 95.9246 15.5791 96.8277 14.3091 96.8277C13.4624 96.8277 12.9544 96.4044 12.4746 95.7835L6.82999 88.389L4.34636 90.7033V94.6546C4.34636 95.8682 3.38677 96.8277 2.17318 96.8277C0.959585 96.8277 0 95.8682 0 94.6546Z" fill="#111111" style="fill:#111111;fill:color(display-p3 0.0661 0.0661 0.0661);fill-opacity:1;"/>
<path d="M154.248 84.9867C154.248 85.5655 154.067 86.1353 153.705 86.696C153.344 87.2386 152.864 87.7632 152.268 88.2696C151.671 88.758 151.01 89.2192 150.287 89.6533C149.563 90.0874 148.84 90.4673 148.116 90.7929C147.393 91.1184 146.733 91.3807 146.136 91.5797C145.991 92.2851 145.919 92.9091 145.919 93.4517C145.919 93.7954 146 94.0396 146.163 94.1843C146.326 94.329 146.579 94.4013 146.923 94.4013C147.682 94.4013 148.487 94.2657 149.337 93.9944C150.187 93.7231 151.056 93.3703 151.942 92.9362C152.828 92.5021 153.678 92.0409 154.492 91.5525C155.306 91.0642 156.048 90.6029 156.717 90.1688C157.404 89.7347 157.974 89.382 158.426 89.1107C158.879 88.8394 159.177 88.7037 159.322 88.7037C159.539 88.7037 159.702 88.7761 159.81 88.9208C159.937 89.0474 160 89.2011 160 89.382C160 89.5267 159.774 89.8071 159.322 90.2231C158.888 90.6391 158.3 91.1275 157.558 91.6882C156.817 92.2308 155.985 92.7915 155.062 93.3703C154.14 93.9492 153.181 94.4918 152.186 94.9982C151.209 95.5047 150.26 95.9117 149.337 96.2192C148.433 96.5266 147.619 96.6804 146.895 96.6804C145.955 96.6804 145.222 96.3277 144.698 95.6223C144.173 94.9168 143.911 93.8225 143.911 92.3393C143.911 91.3445 144.038 90.3407 144.291 89.3278C144.562 88.3148 144.924 87.3472 145.376 86.4247C145.846 85.4841 146.362 84.6521 146.923 83.9286C147.501 83.187 148.107 82.6082 148.74 82.1922C149.373 81.7581 149.988 81.541 150.585 81.541C151.725 81.541 152.62 81.8575 153.271 82.4906C153.923 83.1237 154.248 83.9557 154.248 84.9867ZM146.706 89.4905C147.266 89.1469 147.845 88.7851 148.442 88.4053C149.039 88.0254 149.591 87.6366 150.097 87.2386C150.603 86.8407 151.01 86.4247 151.318 85.9906C151.643 85.5384 151.806 85.0772 151.806 84.6069C151.806 83.9376 151.445 83.603 150.721 83.603C150.269 83.603 149.79 83.8924 149.283 84.4712C148.795 85.0319 148.324 85.7645 147.872 86.6689C147.42 87.5733 147.031 88.5138 146.706 89.4905Z" fill="#417BB4" style="fill:#417BB4;fill:color(display-p3 0.2549 0.4824 0.7059);fill-opacity:1;"/>
<path d="M134.514 96.0022C134.243 96.0022 133.972 95.8032 133.7 95.4053C133.447 95.0073 133.257 94.4466 133.131 93.7231C133.004 92.9634 132.886 92.0952 132.778 91.1185C132.669 90.1418 132.579 89.1831 132.507 88.2426C132.434 87.302 132.38 86.47 132.344 85.7465C132.308 85.0229 132.289 84.5346 132.289 84.2814C132.289 83.3408 132.434 82.6444 132.724 82.1922C133.031 81.7219 133.42 81.4868 133.89 81.4868C134.216 81.4868 134.451 81.5772 134.596 81.7581C134.74 81.9209 134.813 82.3008 134.813 82.8976C134.813 83.2956 134.822 83.8111 134.84 84.4441C134.858 85.0772 134.885 85.7645 134.921 86.5061C134.957 87.3924 134.994 88.333 135.03 89.3278C135.066 90.3045 135.093 91.2722 135.111 92.2309C135.545 91.5074 136.043 90.7025 136.603 89.8162C137.182 88.9299 137.77 88.0255 138.367 87.103C138.964 86.1625 139.543 85.2671 140.103 84.417C140.664 83.5669 141.161 82.8253 141.596 82.1922C142.03 81.5592 142.364 81.0979 142.599 80.8085C142.907 80.4468 143.187 80.1935 143.441 80.0488C143.712 79.9041 143.947 79.8318 144.146 79.8318C144.417 79.8318 144.634 79.9313 144.797 80.1302C144.978 80.3292 145.068 80.6096 145.068 80.9713C145.068 81.1884 145.023 81.4325 144.933 81.7039C144.86 81.9571 144.725 82.2194 144.526 82.4907C144.037 83.2323 143.45 84.1005 142.762 85.0953C142.075 86.0901 141.36 87.1211 140.619 88.1883C139.877 89.2555 139.154 90.2955 138.448 91.3084C137.743 92.3032 137.128 93.1805 136.603 93.9402C135.681 95.3148 134.985 96.0022 134.514 96.0022Z" fill="#417BB4" style="fill:#417BB4;fill:color(display-p3 0.2549 0.4824 0.7059);fill-opacity:1;"/>
<path d="M126.239 96.8163C125.895 96.8163 125.588 96.6897 125.317 96.4364C125.045 96.1651 124.91 95.7491 124.91 95.1884C124.91 94.7905 124.964 94.2388 125.072 93.5334C125.181 92.8099 125.326 92.023 125.506 91.1729C125.687 90.3228 125.877 89.4817 126.076 88.6497C126.293 87.7996 126.51 87.0399 126.727 86.3706C126.944 85.7014 127.134 85.204 127.297 84.8784C127.442 84.6252 127.577 84.4624 127.704 84.39C127.849 84.3177 127.984 84.2815 128.111 84.2815C128.364 84.2815 128.581 84.3629 128.762 84.5257C128.961 84.6885 129.061 85.005 129.061 85.4753C129.061 85.7466 129.006 86.1988 128.898 86.8319C128.807 87.4469 128.681 88.1704 128.518 89.0024C128.373 89.8163 128.211 90.6574 128.03 91.5256C127.867 92.3758 127.704 93.1897 127.541 93.9675C127.379 94.7452 127.252 95.3964 127.161 95.9209C127.089 96.2103 126.962 96.4364 126.782 96.5992C126.619 96.7439 126.438 96.8163 126.239 96.8163ZM128.898 81.8126C128.482 81.8126 128.084 81.6859 127.704 81.4327C127.342 81.1795 127.161 80.7725 127.161 80.2118C127.161 79.7415 127.27 79.3617 127.487 79.0723C127.722 78.7829 127.993 78.5749 128.301 78.4483C128.627 78.3036 128.907 78.2312 129.142 78.2312C129.377 78.2312 129.639 78.2855 129.929 78.394C130.236 78.4844 130.499 78.6653 130.716 78.9366C130.933 79.1898 131.041 79.5697 131.041 80.0761C131.041 80.4198 130.924 80.7273 130.689 80.9986C130.453 81.2518 130.164 81.4508 129.82 81.5955C129.495 81.7402 129.187 81.8126 128.898 81.8126Z" fill="#417BB4" style="fill:#417BB4;fill:color(display-p3 0.2549 0.4824 0.7059);fill-opacity:1;"/>
<path d="M115.434 97.7657C114.042 97.7657 112.947 97.3135 112.151 96.4091C111.374 95.4867 110.985 94.2024 110.985 92.5565C110.985 91.5435 111.12 90.3588 111.392 89.0022C111.681 87.6276 112.043 86.1806 112.477 84.6612C112.929 83.1237 113.418 81.6044 113.942 80.1031C114.467 78.6018 114.973 77.2091 115.461 75.9249C115.968 74.6225 116.411 73.5373 116.791 72.6691C117.008 72.1807 117.315 71.9365 117.713 71.9365C118.256 71.9365 118.527 72.2711 118.527 72.9404C118.527 73.1574 118.428 73.6006 118.229 74.2698C118.03 74.9391 117.768 75.7711 117.442 76.7659C117.116 77.7427 116.764 78.8279 116.384 80.0217C116.004 81.2155 115.615 82.4455 115.217 83.7116C114.837 84.9596 114.485 86.1986 114.159 87.4286C113.834 88.6405 113.571 89.78 113.372 90.8472C113.173 91.9143 113.074 92.8278 113.074 93.5875C113.074 94.0758 113.2 94.4647 113.454 94.7541C113.725 95.0254 114.087 95.1611 114.539 95.1611C115.371 95.1611 116.203 94.9983 117.035 94.6727C117.885 94.3291 118.699 93.913 119.477 93.4247C120.747 92.5973 120.694 92.6649 121.916 91.7849C122.368 91.4412 122.685 91.2694 122.865 91.2694C123.263 91.2694 123.462 91.4864 123.462 91.9205C123.462 92.0652 123.318 92.3365 123.028 92.7345C122.408 93.5875 122.332 93.7844 121.485 94.6185C120.852 95.1611 120.182 95.6766 119.477 96.1649C118.79 96.6352 118.093 97.0151 117.388 97.3045C116.7 97.612 116.049 97.7657 115.434 97.7657Z" fill="#417BB4" style="fill:#417BB4;fill:color(display-p3 0.2549 0.4824 0.7059);fill-opacity:1;"/>
<defs>
<radialGradient id="paint0_radial_241_528" cx="0" cy="0" r="1" gradientUnits="userSpaceOnUse" gradientTransform="translate(67.4157 12.7641) rotate(90) scale(46.9213)">
<stop stop-color="#F10004" style="stop-color:#F10004;stop-color:color(display-p3 0.9434 0.0000 0.0157);stop-opacity:1;"/>
<stop offset="1" stop-color="#F10004" stop-opacity="0" style="stop-color:none;stop-opacity:0;"/>
</radialGradient>
<radialGradient id="paint1_radial_241_528" cx="0" cy="0" r="1" gradientUnits="userSpaceOnUse" gradientTransform="translate(104.809 42.2473) rotate(90) scale(34.5169)">
<stop stop-color="#6400D6" style="stop-color:#6400D6;stop-color:color(display-p3 0.3925 0.0000 0.8410);stop-opacity:1;"/>
<stop offset="1" stop-color="#6400D6" stop-opacity="0" style="stop-color:none;stop-opacity:0;"/>
</radialGradient>
<radialGradient id="paint2_radial_241_528" cx="0" cy="0" r="1" gradientUnits="userSpaceOnUse" gradientTransform="translate(72.2697 3.23596) rotate(90) scale(30.7416)">
<stop stop-color="#FFD900" style="stop-color:#FFD900;stop-color:color(display-p3 1.0000 0.8500 0.0000);stop-opacity:1;"/>
<stop offset="1" stop-color="#FFD900" stop-opacity="0" style="stop-color:none;stop-opacity:0;"/>
</radialGradient>
<radialGradient id="paint3_radial_241_528" cx="0" cy="0" r="1" gradientUnits="userSpaceOnUse" gradientTransform="translate(70.8315 61.8427) rotate(90) scale(49.4382)">
<stop stop-color="#00D39E" style="stop-color:#00D39E;stop-color:color(display-p3 0.0000 0.8263 0.6197);stop-opacity:1;"/>
<stop offset="1" stop-color="#00D39E" stop-opacity="0" style="stop-color:none;stop-opacity:0;"/>
</radialGradient>
<radialGradient id="paint4_radial_241_528" cx="0" cy="0" r="1" gradientUnits="userSpaceOnUse" gradientTransform="translate(74.5251 24.1186) rotate(90) scale(15.3117)">
<stop stop-color="#CD0B1C" style="stop-color:#CD0B1C;stop-color:color(display-p3 0.8043 0.0434 0.1110);stop-opacity:1;"/>
<stop offset="1" stop-color="#CD0B1C" stop-opacity="0" style="stop-color:none;stop-opacity:0;"/>
</radialGradient>
<radialGradient id="paint5_radial_241_528" cx="0" cy="0" r="1" gradientUnits="userSpaceOnUse" gradientTransform="translate(85.3503 31.5782) rotate(90) scale(20.8468)">
<stop stop-color="#3B0751" style="stop-color:#3B0751;stop-color:color(display-p3 0.2309 0.0267 0.3194);stop-opacity:1;"/>
<stop offset="1" stop-color="#7910A6" stop-opacity="0" style="stop-color:none;stop-opacity:0;"/>
</radialGradient>
<clipPath id="clip0_241_528">
<rect width="64" height="64" fill="white" style="fill:white;fill-opacity:1;" transform="translate(48)"/>
</clipPath>
</defs>
</svg>
