<svg width="220" height="48" viewBox="0 0 220 48" fill="none" xmlns="http://www.w3.org/2000/svg">
<g clip-path="url(#clip0_461_754)">
<mask id="mask0_461_754" style="mask-type:alpha" maskUnits="userSpaceOnUse" x="0" y="0" width="48" height="48">
<path d="M16.635 3.05069C20.7026 -1.0169 27.2974 -1.0169 31.365 3.05069L44.9493 16.635C49.0169 20.7026 49.0169 27.2974 44.9493 31.365L31.365 44.9493C27.2974 49.0169 20.7026 49.0169 16.635 44.9493L3.05069 31.365C-1.0169 27.2974 -1.0169 20.7026 3.05069 16.635L16.635 3.05069Z" fill="white"/>
</mask>
<g mask="url(#mask0_461_754)">
<path d="M16.635 3.05069C20.7026 -1.0169 27.2974 -1.0169 31.365 3.05069L44.9493 16.635C49.0169 20.7026 49.0169 27.2974 44.9493 31.365L31.365 44.9493C27.2974 49.0169 20.7026 49.0169 16.635 44.9493L3.05069 31.365C-1.0169 27.2974 -1.0169 20.7026 3.05069 16.635L16.635 3.05069Z" fill="#FE00EC"/>
<circle cx="14.5619" cy="9.57285" r="35.191" fill="url(#paint0_radial_461_754)"/>
<circle cx="42.6069" cy="31.685" r="25.8876" fill="url(#paint1_radial_461_754)"/>
<circle cx="18.2024" cy="2.42678" r="23.0562" fill="url(#paint2_radial_461_754)"/>
<circle cx="17.1236" cy="46.3819" r="37.0787" fill="url(#paint3_radial_461_754)"/>
<ellipse cx="19.8939" cy="18.0888" rx="11.4838" ry="11.4838" fill="url(#paint4_radial_461_754)"/>
<circle cx="28.0128" cy="23.6834" r="15.6351" fill="url(#paint5_radial_461_754)"/>
<path fill-rule="evenodd" clip-rule="evenodd" d="M26.7834 12.0824C29.0361 9.99467 32.6573 9.99467 34.9101 12.0824C37.2092 14.2133 37.2092 17.7043 34.9101 19.8352L30.7333 23.7061L34.9101 27.5771C37.2092 29.708 37.2092 33.199 34.9101 35.3299C32.6573 37.4176 29.0361 37.4176 26.7834 35.3299L23.9317 32.6869C23.3244 35.1449 20.9495 36.8957 18.2431 36.8957C15.1005 36.8957 12.4045 34.5351 12.4045 31.4478V15.9645C12.4045 12.8772 15.1005 10.5166 18.2431 10.5166C20.9495 10.5166 23.3244 12.2674 23.9317 14.7252L26.7834 12.0824ZM18.2431 12.6228C16.1042 12.6228 14.5184 14.1974 14.5184 15.9645V31.4478C14.5184 33.2149 16.1042 34.7895 18.2431 34.7895C20.3821 34.7894 21.9676 33.2149 21.9676 31.4478V30.8667L18.424 27.5826C16.1248 25.4517 16.1248 21.9606 18.424 19.8297L21.9676 16.5455V15.9645C21.9676 14.1974 20.3821 12.6228 18.2431 12.6228ZM33.481 13.6281C32.0347 12.2877 29.6587 12.2877 28.2125 13.6281L24.0816 17.4565V29.9558L28.2125 33.7842C29.6587 35.1246 32.0347 35.1246 33.481 33.7842C34.8807 32.487 34.8807 30.42 33.481 29.1228L28.4704 24.4791C28.2553 24.2798 28.133 23.9996 28.133 23.7061C28.133 23.4127 28.2553 23.1325 28.4704 22.9332L33.481 18.2895C34.8807 16.9923 34.8807 14.9253 33.481 13.6281ZM19.853 21.3754C18.4533 22.6726 18.4533 24.7397 19.853 26.0368L21.9676 27.9966V19.4156L19.853 21.3754Z" fill="white"/>
</g>
</g>
<path d="M162.051 32.3721C162.051 31.0174 163.095 29.9731 164.506 29.9731C165.918 29.9731 166.962 31.0174 166.962 32.3721V32.4286C166.962 33.7833 165.918 34.8275 164.506 34.8275C163.095 34.8275 162.051 33.7833 162.051 32.4286V32.3721Z" fill="white"/>
<path d="M154.353 32.6828V16.0312C154.353 14.8458 155.312 13.8862 156.498 13.8862C157.683 13.8862 158.643 14.8458 158.643 16.0312V32.6828C158.643 33.8682 157.683 34.8278 156.498 34.8278C155.312 34.8278 154.353 33.8682 154.353 32.6828Z" fill="white"/>
<path d="M142.025 34.9405C139.175 34.9405 136.832 33.3035 136.832 30.3119V30.2554C136.832 26.9533 139.344 25.4293 142.928 25.4293C144.452 25.4293 145.553 25.6833 146.625 26.0502V25.7962C146.625 24.0181 145.525 23.0303 143.38 23.0303C142.194 23.0303 141.235 23.1997 140.416 23.4537C140.162 23.5383 139.993 23.5666 139.795 23.5666C138.808 23.5666 138.017 22.8045 138.017 21.8167C138.017 21.0547 138.497 20.4056 139.175 20.1516C140.529 19.6436 141.997 19.3613 144.001 19.3613C146.343 19.3613 148.037 19.9822 149.109 21.0547C150.238 22.1836 150.746 23.8488 150.746 25.8809V32.7673C150.746 33.9244 149.815 34.8276 148.658 34.8276C147.416 34.8276 146.597 33.9527 146.597 33.0495V33.0213C145.553 34.1785 144.114 34.9405 142.025 34.9405ZM143.323 31.9771C145.327 31.9771 146.682 30.8763 146.682 29.3241V28.5621C145.948 28.2234 144.989 27.9976 143.944 27.9976C142.11 27.9976 140.981 28.7314 140.981 30.0861V30.1425C140.981 31.2997 141.94 31.9771 143.323 31.9771Z" fill="white"/>
<path d="M118.972 32.6828V16.0312C118.972 14.8458 119.932 13.8862 121.117 13.8862C122.303 13.8862 123.262 14.8458 123.262 16.0312V21.704C124.307 20.2929 125.746 19.2486 127.976 19.2486C131.503 19.2486 134.862 22.0145 134.862 27.0664V27.1229C134.862 32.1748 131.56 34.9407 127.976 34.9407C125.69 34.9407 124.278 33.8964 123.262 32.6828V32.711C123.262 33.8682 122.303 34.8278 121.117 34.8278C119.932 34.8278 118.972 33.8682 118.972 32.6828ZM126.875 31.2999C128.879 31.2999 130.572 29.6629 130.572 27.1229V27.0664C130.572 24.5546 128.879 22.8894 126.875 22.8894C124.871 22.8894 123.206 24.5546 123.206 27.0664V27.1229C123.206 29.6347 124.871 31.2999 126.875 31.2999Z" fill="white"/>
<path d="M109.212 32.6827V23.1998H109.042C108.055 23.1998 107.264 22.4377 107.264 21.4499C107.264 20.4621 108.055 19.6719 109.042 19.6719H109.212V18.7123C109.212 17.0471 109.635 15.8335 110.425 15.0433C111.216 14.253 112.373 13.8579 113.897 13.8579C114.574 13.8579 115.167 13.8861 115.647 13.9708C116.38 14.0837 117.114 14.7328 117.114 15.6924C117.114 16.652 116.324 17.4705 115.364 17.4705H114.998C114.01 17.4705 113.445 17.9785 113.445 19.1074V19.7001H115.308C116.296 19.7001 117.086 20.4621 117.086 21.4499C117.086 22.4377 116.296 23.1998 115.308 23.1998H113.502V32.6827C113.502 33.8681 112.542 34.8277 111.357 34.8277C110.171 34.8277 109.212 33.8681 109.212 32.6827Z" fill="white"/>
<path d="M96.9641 32.6826V21.5063C96.9641 20.3209 97.9237 19.3613 99.1091 19.3613C100.294 19.3613 101.254 20.3209 101.254 21.5063V22.1836C101.875 20.716 102.891 19.3613 104.161 19.3613C105.487 19.3613 106.25 20.2362 106.25 21.4498C106.25 22.5788 105.516 23.2561 104.641 23.4537C102.468 23.9617 101.254 25.6269 101.254 28.6749V32.6826C101.254 33.868 100.294 34.8276 99.1091 34.8276C97.9237 34.8276 96.9641 33.868 96.9641 32.6826Z" fill="white"/>
<path d="M85.927 34.997C81.2419 34.997 77.7705 31.5256 77.7705 27.1792V27.1228C77.7705 22.7764 81.2702 19.2485 85.9834 19.2485C90.6685 19.2485 94.1399 22.72 94.1399 27.0663V27.1228C94.1399 31.4691 90.6402 34.997 85.927 34.997ZM85.9834 31.2998C88.4388 31.2998 89.9064 29.4088 89.9064 27.1792V27.1228C89.9064 24.8932 88.2977 22.9458 85.927 22.9458C83.4716 22.9458 82.004 24.8367 82.004 27.0663V27.1228C82.004 29.3524 83.6127 31.2998 85.9834 31.2998Z" fill="white"/>
<path d="M60 32.6546V16.9061C60 15.6925 60.9596 14.7329 62.1732 14.7329C63.3868 14.7329 64.3464 15.6925 64.3464 16.9061V23.5385L72.3617 15.5796C72.898 15.0434 73.4342 14.7329 74.1962 14.7329C75.4098 14.7329 76.2001 15.6643 76.2001 16.7367C76.2001 17.4141 75.8896 17.9221 75.4098 18.3737L69.8499 23.5667L75.9178 31.187C76.2565 31.6103 76.5105 32.0619 76.5105 32.711C76.5105 33.9246 75.5791 34.8277 74.3091 34.8277C73.4624 34.8277 72.9544 34.4044 72.4746 33.7835L66.83 26.389L64.3464 28.7033V32.6546C64.3464 33.8682 63.3868 34.8277 62.1732 34.8277C60.9596 34.8277 60 33.8682 60 32.6546Z" fill="white"/>
<path d="M214.248 22.9867C214.248 23.5655 214.067 24.1353 213.706 24.696C213.344 25.2386 212.865 25.7632 212.268 26.2696C211.671 26.758 211.011 27.2192 210.287 27.6533C209.564 28.0874 208.84 28.4673 208.117 28.7929C207.393 29.1184 206.733 29.3807 206.136 29.5797C205.991 30.2851 205.919 30.9091 205.919 31.4517C205.919 31.7954 206 32.0396 206.163 32.1843C206.326 32.329 206.579 32.4013 206.923 32.4013C207.682 32.4013 208.487 32.2657 209.337 31.9944C210.188 31.7231 211.056 31.3703 211.942 30.9362C212.828 30.5021 213.678 30.0409 214.492 29.5525C215.306 29.0642 216.048 28.6029 216.717 28.1688C217.405 27.7347 217.974 27.382 218.426 27.1107C218.879 26.8394 219.177 26.7037 219.322 26.7037C219.539 26.7037 219.702 26.7761 219.81 26.9208C219.937 27.0474 220 27.2011 220 27.382C220 27.5267 219.774 27.8071 219.322 28.2231C218.888 28.6391 218.3 29.1275 217.558 29.6882C216.817 30.2308 215.985 30.7915 215.062 31.3703C214.14 31.9492 213.181 32.4918 212.186 32.9982C211.21 33.5047 210.26 33.9117 209.337 34.2192C208.433 34.5266 207.619 34.6804 206.896 34.6804C205.955 34.6804 205.222 34.3277 204.698 33.6223C204.173 32.9168 203.911 31.8225 203.911 30.3393C203.911 29.3445 204.038 28.3407 204.291 27.3278C204.562 26.3148 204.924 25.3472 205.376 24.4247C205.847 23.4841 206.362 22.6521 206.923 21.9286C207.502 21.187 208.107 20.6082 208.741 20.1922C209.374 19.7581 209.989 19.541 210.585 19.541C211.725 19.541 212.62 19.8575 213.271 20.4906C213.923 21.1237 214.248 21.9557 214.248 22.9867ZM206.706 27.4905C207.266 27.1469 207.845 26.7851 208.442 26.4053C209.039 26.0254 209.591 25.6366 210.097 25.2386C210.604 24.8407 211.011 24.4247 211.318 23.9906C211.644 23.5384 211.806 23.0772 211.806 22.6069C211.806 21.9376 211.445 21.603 210.721 21.603C210.269 21.603 209.79 21.8924 209.283 22.4712C208.795 23.0319 208.325 23.7645 207.872 24.6689C207.42 25.5733 207.031 26.5138 206.706 27.4905Z" fill="#417BB4"/>
<path d="M194.514 34.0019C194.243 34.0019 193.972 33.8029 193.7 33.405C193.447 33.0071 193.257 32.4464 193.131 31.7229C193.004 30.9632 192.886 30.095 192.778 29.1182C192.669 28.1415 192.579 27.1829 192.507 26.2423C192.434 25.3017 192.38 24.4697 192.344 23.7462C192.308 23.0227 192.29 22.5343 192.29 22.2811C192.29 21.3406 192.434 20.6442 192.724 20.192C193.031 19.7217 193.42 19.4866 193.89 19.4866C194.216 19.4866 194.451 19.577 194.596 19.7579C194.74 19.9207 194.813 20.3005 194.813 20.8974C194.813 21.2953 194.822 21.8108 194.84 22.4439C194.858 23.077 194.885 23.7643 194.921 24.5059C194.957 25.3922 194.994 26.3327 195.03 27.3276C195.066 28.3043 195.093 29.272 195.111 30.2306C195.545 29.5071 196.043 28.7022 196.603 27.8159C197.182 26.9296 197.77 26.0253 198.367 25.1028C198.964 24.1622 199.543 23.2669 200.103 22.4168C200.664 21.5666 201.162 20.8251 201.596 20.192C202.03 19.5589 202.364 19.0977 202.6 18.8083C202.907 18.4465 203.187 18.1933 203.441 18.0486C203.712 17.9039 203.947 17.8315 204.146 17.8315C204.417 17.8315 204.634 17.931 204.797 18.13C204.978 18.329 205.068 18.6093 205.068 18.9711C205.068 19.1881 205.023 19.4323 204.933 19.7036C204.86 19.9568 204.725 20.2191 204.526 20.4904C204.037 21.232 203.45 22.1002 202.762 23.0951C202.075 24.0899 201.361 25.1209 200.619 26.188C199.877 27.2552 199.154 28.2953 198.448 29.3082C197.743 30.303 197.128 31.1802 196.603 31.9399C195.681 33.3146 194.985 34.0019 194.514 34.0019Z" fill="#417BB4"/>
<path d="M186.239 34.816C185.895 34.816 185.588 34.6894 185.317 34.4362C185.045 34.1649 184.91 33.7489 184.91 33.1881C184.91 32.7902 184.964 32.2385 185.072 31.5331C185.181 30.8096 185.326 30.0228 185.507 29.1727C185.687 28.3226 185.877 27.4815 186.076 26.6494C186.293 25.7993 186.51 25.0396 186.727 24.3704C186.945 23.7012 187.134 23.2037 187.297 22.8782C187.442 22.6249 187.578 22.4622 187.704 22.3898C187.849 22.3175 187.985 22.2813 188.111 22.2813C188.364 22.2813 188.581 22.3627 188.762 22.5255C188.961 22.6883 189.061 23.0048 189.061 23.4751C189.061 23.7464 189.007 24.1986 188.898 24.8316C188.808 25.4466 188.681 26.1701 188.518 27.0022C188.373 27.8161 188.211 28.6572 188.03 29.5254C187.867 30.3755 187.704 31.1895 187.541 31.9672C187.379 32.745 187.252 33.3961 187.162 33.9207C187.089 34.2101 186.963 34.4362 186.782 34.599C186.619 34.7437 186.438 34.816 186.239 34.816ZM188.898 19.8123C188.482 19.8123 188.084 19.6857 187.704 19.4325C187.342 19.1792 187.162 18.7723 187.162 18.2116C187.162 17.7413 187.27 17.3614 187.487 17.072C187.722 16.7826 187.994 16.5746 188.301 16.448C188.627 16.3033 188.907 16.231 189.142 16.231C189.377 16.231 189.64 16.2852 189.929 16.3937C190.236 16.4842 190.499 16.6651 190.716 16.9364C190.933 17.1896 191.041 17.5694 191.041 18.0759C191.041 18.4196 190.924 18.7271 190.689 18.9984C190.454 19.2516 190.164 19.4506 189.82 19.5953C189.495 19.74 189.187 19.8123 188.898 19.8123Z" fill="#417BB4"/>
<path d="M175.434 35.7657C174.042 35.7657 172.947 35.3135 172.152 34.4091C171.374 33.4867 170.985 32.2024 170.985 30.5565C170.985 29.5435 171.121 28.3588 171.392 27.0022C171.681 25.6276 172.043 24.1806 172.477 22.6612C172.929 21.1237 173.418 19.6044 173.942 18.1031C174.467 16.6018 174.973 15.2091 175.462 13.9249C175.968 12.6225 176.411 11.5373 176.791 10.6691C177.008 10.1807 177.316 9.93652 177.713 9.93652C178.256 9.93652 178.527 10.2711 178.527 10.9404C178.527 11.1574 178.428 11.6006 178.229 12.2698C178.03 12.9391 177.768 13.7711 177.442 14.7659C177.117 15.7427 176.764 16.8279 176.384 18.0217C176.004 19.2155 175.615 20.4455 175.217 21.7116C174.838 22.9596 174.485 24.1986 174.159 25.4286C173.834 26.6405 173.571 27.78 173.372 28.8472C173.173 29.9143 173.074 30.8278 173.074 31.5875C173.074 32.0758 173.201 32.4647 173.454 32.7541C173.725 33.0254 174.087 33.1611 174.539 33.1611C175.371 33.1611 176.203 32.9983 177.035 32.6727C177.885 32.3291 178.699 31.913 179.477 31.4247C180.748 30.5973 180.694 30.6649 181.916 29.7849C182.368 29.4412 182.685 29.2694 182.866 29.2694C183.264 29.2694 183.463 29.4864 183.463 29.9205C183.463 30.0652 183.318 30.3365 183.028 30.7345C182.408 31.5875 182.332 31.7844 181.485 32.6185C180.852 33.1611 180.182 33.6766 179.477 34.1649C178.79 34.6352 178.093 35.0151 177.388 35.3045C176.701 35.612 176.049 35.7657 175.434 35.7657Z" fill="#417BB4"/>
<defs>
<radialGradient id="paint0_radial_461_754" cx="0" cy="0" r="1" gradientUnits="userSpaceOnUse" gradientTransform="translate(14.5619 9.57285) rotate(90) scale(35.191)">
<stop stop-color="#F10004"/>
<stop offset="1" stop-color="#F10004" stop-opacity="0"/>
</radialGradient>
<radialGradient id="paint1_radial_461_754" cx="0" cy="0" r="1" gradientUnits="userSpaceOnUse" gradientTransform="translate(42.6069 31.685) rotate(90) scale(25.8876)">
<stop stop-color="#6400D6"/>
<stop offset="1" stop-color="#6400D6" stop-opacity="0"/>
</radialGradient>
<radialGradient id="paint2_radial_461_754" cx="0" cy="0" r="1" gradientUnits="userSpaceOnUse" gradientTransform="translate(18.2024 2.42678) rotate(90) scale(23.0562)">
<stop stop-color="#FFD900"/>
<stop offset="1" stop-color="#FFD900" stop-opacity="0"/>
</radialGradient>
<radialGradient id="paint3_radial_461_754" cx="0" cy="0" r="1" gradientUnits="userSpaceOnUse" gradientTransform="translate(17.1236 46.3819) rotate(90) scale(37.0787)">
<stop stop-color="#00D39E"/>
<stop offset="1" stop-color="#00D39E" stop-opacity="0"/>
</radialGradient>
<radialGradient id="paint4_radial_461_754" cx="0" cy="0" r="1" gradientUnits="userSpaceOnUse" gradientTransform="translate(19.8939 18.0888) rotate(90) scale(11.4838)">
<stop stop-color="#CD0B1C"/>
<stop offset="1" stop-color="#CD0B1C" stop-opacity="0"/>
</radialGradient>
<radialGradient id="paint5_radial_461_754" cx="0" cy="0" r="1" gradientUnits="userSpaceOnUse" gradientTransform="translate(28.0128 23.6834) rotate(90) scale(15.6351)">
<stop stop-color="#3B0751"/>
<stop offset="1" stop-color="#7910A6" stop-opacity="0"/>
</radialGradient>
<clipPath id="clip0_461_754">
<rect width="48" height="48" fill="white"/>
</clipPath>
</defs>
</svg>
