<svg width="120" height="120" viewBox="0 0 120 120" fill="none" xmlns="http://www.w3.org/2000/svg">
<path d="M49.6309 92.7709H21.3839C17.9151 92.7709 15.098 89.949 15.098 86.485L15.0933 21.3239C15.0933 17.8551 17.9152 15.038 21.3792 15.038H66.0422C69.511 15.038 72.3281 17.8599 72.3281 21.3146C72.3281 21.3146 72.3047 53.8366 72.2906 57.4926C72.2906 58.5707 73.1672 59.4474 74.2453 59.4615H74.2594C75.3375 59.4615 76.2141 58.5849 76.2141 57.5067C76.2282 53.8458 76.2516 21.3147 76.2516 21.3147C76.2516 15.685 71.6813 11.1147 66.0516 11.1147H21.3836C15.7539 11.1147 11.1836 15.685 11.1836 21.3147V86.4858C11.1836 92.1155 15.7539 96.6858 21.3836 96.6858H49.6306C50.7087 96.6858 51.5853 95.8092 51.5853 94.7311C51.5853 93.6623 50.7134 92.7717 49.6306 92.7717L49.6309 92.7709Z" fill="#0C15E7"/>
<path d="M57.694 39.8162H45.849C44.7709 39.8162 43.8943 40.6927 43.8943 41.7709C43.8943 42.849 44.7708 43.7256 45.849 43.7256H53.1709L43.5475 53.4568L36.5537 50.1334C35.799 49.7724 34.899 49.9271 34.3225 50.5271L24.1835 60.8111C23.4288 61.5799 23.4288 62.8267 24.2069 63.5814C24.5913 63.9517 25.0835 64.1439 25.585 64.1439C26.0913 64.1439 26.5928 63.9517 26.9772 63.558L36.146 54.2721L43.1398 57.5955C43.8945 57.9564 44.7851 57.8017 45.371 57.2017L55.749 46.6877V53.8877C55.749 54.9658 56.6256 55.8424 57.7037 55.8424C58.7819 55.8424 59.6584 54.9659 59.6584 53.8877L59.6631 41.7847C59.6631 40.6925 58.7865 39.8159 57.6943 39.8159L57.694 39.8162Z" fill="#0C15E7"/>
<path d="M106.14 79.2938C104.27 77.2782 101.617 76.1391 98.8698 76.1391H90.676C91.0463 75.2157 91.3369 74.2688 91.5291 73.2844C92.1151 70.3688 91.5526 67.3782 89.9682 64.8703C89.9542 64.8563 89.9542 64.8469 89.9448 64.8328L88.7589 62.9719C87.6667 61.2657 85.8058 60.2485 83.7901 60.2485C81.6292 60.2485 79.8667 62.011 79.8667 64.1719V69.3188C79.8667 70.5797 79.337 71.8032 78.437 72.6657L73.5667 77.3204C72.7136 76.7579 71.7058 76.4345 70.6136 76.4345H65.2136C62.2511 76.4345 59.8511 78.8486 59.8511 81.797V103.05C59.8511 106.012 62.2652 108.412 65.2136 108.412H70.6136C72.6761 108.412 74.4527 107.227 75.3527 105.52L80.8605 107.259C84.2214 108.314 87.7136 108.853 91.2385 108.853H96.1697C101.392 108.853 105.938 105.145 106.984 100.031C107.87 95.6625 108.484 91.2001 108.798 86.7473C108.985 84.0239 108.015 81.3004 106.14 79.2942L106.14 79.2938ZM72.0621 103.068C72.0621 103.874 71.4152 104.521 70.609 104.521H65.209C64.4027 104.521 63.7559 103.874 63.7559 103.068V81.8148C63.7559 81.0086 64.4028 80.3617 65.209 80.3617H70.609C71.4152 80.3617 72.0621 81.0086 72.0621 81.8148V103.068ZM103.14 99.2616C102.47 102.562 99.5401 104.948 96.1698 104.948H91.2386C88.1074 104.948 85.0089 104.469 82.0324 103.532L75.9715 101.624V81.8141C75.9715 81.3923 75.9106 80.9844 75.8168 80.5907L81.1324 75.5141C82.8105 73.9063 83.7715 71.6516 83.7715 69.336L83.7856 64.1751C84.4699 64.1751 85.0934 64.5126 85.4544 65.0892L86.2325 66.3126C86.4106 66.5892 86.5465 66.8048 86.6169 66.9126C86.6309 66.9267 86.6309 66.936 86.6403 66.9595C87.695 68.6142 88.07 70.5829 87.6856 72.5142C87.47 73.5595 87.1231 74.5767 86.6403 75.5376L86.2794 76.2594C85.8716 77.0751 85.909 78.036 86.4012 78.8141C86.8794 79.5923 87.7231 80.061 88.6324 80.061H98.8704C100.563 80.061 102.124 80.7454 103.277 81.983C104.43 83.2205 105.006 84.8283 104.884 86.5205C104.58 90.7674 104.008 95.0611 103.141 99.2605L103.14 99.2616Z" fill="#DD085F"/>
</svg>
