<svg width="120" height="120" viewBox="0 0 120 120" fill="none" xmlns="http://www.w3.org/2000/svg">
<path d="M92.3249 64.6181L92.317 58.8851V16.7631C92.317 13.6787 89.8092 11.1709 86.7248 11.1709H33.2778C30.1934 11.1709 27.6716 13.6787 27.6716 16.7631V58.8941L27.6709 64.6077V73.9311L31.5801 70.0089L31.5848 16.7539C31.5848 15.8304 32.3535 15.0711 33.277 15.0711H86.724C87.6474 15.0711 88.4021 15.8258 88.4021 16.7492V70.0042L92.3249 73.9415V64.6181Z" fill="#0C15E7"/>
<path d="M70.4672 92.1287H81.1592L81.4881 88.1963L38.4941 88.201L38.8365 92.1177H49.5285L53.4815 92.143H66.5125L70.4672 92.1287Z" fill="#0C15E7"/>
<path d="M36.9001 59.747H81.9521C83.0302 59.747 83.9068 58.8704 83.9068 57.7923C83.9068 56.7141 83.0302 55.8376 81.9521 55.8376H79.9459V20.9396C79.9459 19.8615 79.0693 18.9849 77.9912 18.9849H65.7622C64.6841 18.9849 63.8075 19.8614 63.8075 20.9396V55.8336H55.2153V37.4306C55.2153 36.3525 54.3387 35.4759 53.2606 35.4759L41.0396 35.4712C39.9615 35.4712 39.0849 36.3477 39.0849 37.4259V55.8339H36.9005C35.8224 55.8339 34.9458 56.7104 34.9458 57.7886C34.9458 58.8714 35.8224 59.748 36.9005 59.748L36.9001 59.747ZM67.7161 22.894H76.0317V55.833H67.7161V22.894ZM42.9941 39.384H51.3097V55.837H42.9941V39.384Z" fill="#0C15E7"/>
<path d="M51.6439 97.4822C52.8205 95.5603 53.2986 93.6525 53.4814 92.1431L49.5284 92.1178C49.3784 93.1069 49.0315 94.26 48.3237 95.4225L48.3239 95.424C47.1848 97.2849 45.6614 98.3162 44.5786 98.8552C43.9177 99.1927 43.5005 99.863 43.5005 100.608V104.94H14.9395V85.2135C14.9395 80.7135 16.6317 76.4197 19.702 73.1295L27.6708 64.6076L27.6715 58.894L16.8485 70.472C13.0938 74.4939 11.0266 79.7251 11.0266 85.219V106.89C11.0266 107.968 11.9032 108.845 12.9813 108.845H45.4423C46.5204 108.845 47.397 107.968 47.397 106.89V101.753C48.7751 100.899 50.3736 99.5447 51.6439 97.4822Z" fill="#DD085F"/>
<path d="M70.4672 92.1286L66.5125 92.1429C66.6906 93.657 67.1734 95.5648 68.3499 97.482C69.6202 99.5445 71.2281 100.904 72.5969 101.752V106.89C72.5969 107.968 73.4734 108.844 74.5515 108.844H107.013C108.091 108.844 108.967 107.968 108.967 106.89L108.972 85.2158C108.963 79.7174 106.895 74.4718 103.141 70.4638L103.14 70.4628L92.3169 58.8848L92.3249 64.6177L100.294 73.1489C103.364 76.4348 105.056 80.7192 105.056 85.2329L105.061 104.93H76.514V100.599C76.514 99.8535 76.0921 99.1832 75.4359 98.8457C74.3578 98.3066 72.8297 97.2754 71.6906 95.4145C70.9827 94.252 70.6359 93.0989 70.4672 92.1286Z" fill="#DD085F"/>
<path d="M34.0599 100.134C34.5661 100.134 35.0818 99.9416 35.4521 99.5479C37.9169 97.0583 39.1219 93.5648 38.8365 90.1211C38.6042 87.3183 37.9156 86.0936 36.7879 84.4467L43.7488 76.7545C47.1191 73.0233 46.8332 67.2389 43.1113 63.8545C41.541 62.4248 39.1175 62.4857 37.6035 63.9858L31.5801 70.0092L27.6709 73.9314L21.3334 80.2689C20.5646 81.0376 20.5646 82.2751 21.3334 83.0298C22.1021 83.7985 23.3396 83.7985 24.0943 83.0298L40.4723 66.7588C42.6098 68.69 42.7645 72.0041 40.8426 74.1369L33.5207 82.2369C32.4895 83.376 32.4051 85.0916 33.3145 86.3291C33.9848 87.2291 35.0911 89.1135 34.9598 91.5979C34.8144 94.3354 33.3051 96.1588 32.6536 96.8198C31.8989 97.5885 31.9083 98.826 32.6911 99.5807C33.0754 99.951 33.5676 100.134 34.0599 100.134Z" fill="#DD085F"/>
<path d="M81.1643 90.207C80.9446 94.5472 82.0179 96.9946 84.5437 99.5584C84.9281 99.9521 85.4296 100.144 85.9359 100.144C86.4281 100.144 86.9203 99.9662 87.3047 99.5912C88.0734 98.8365 88.0828 97.599 87.3422 96.8303C86.6953 96.1694 85.1719 94.3365 85.036 91.6084C84.9141 89.124 86.0204 87.2396 86.6813 86.3396C87.5954 85.1021 87.511 83.3865 86.475 82.2474L79.1532 74.1474C77.222 72.0099 77.3906 68.7005 79.6313 66.7693L88.9313 76.0693C88.9688 76.1162 89.0156 76.1631 89.0625 76.2006L95.9016 83.0397C96.6704 83.8084 97.9078 83.8084 98.6625 83.0397C99.4172 82.2709 99.4313 81.0335 98.6625 80.2788L92.325 73.9413L88.4022 70.004L82.3788 63.9806C80.8788 62.4806 78.4554 62.4103 76.871 63.8493C73.1398 67.2337 72.8491 73.0181 76.2335 76.7493L83.1944 84.4415C81.9884 86.2457 81.2868 87.7875 81.1643 90.207Z" fill="#DD085F"/>
</svg>
