<svg width="120" height="120" viewBox="0 0 120 120" fill="none" xmlns="http://www.w3.org/2000/svg">
<path d="M49.5841 92.6058L21.4551 92.5918C18.0239 92.5918 15.2395 89.8074 15.2395 86.3762V21.8762C15.2395 18.445 18.0239 15.6606 21.4551 15.6606H65.6631C69.0943 15.6606 71.8787 18.445 71.8787 21.8762V46.8232C71.8787 47.892 72.7412 48.7685 73.824 48.7685C74.9021 48.7685 75.7693 47.906 75.7693 46.8232V21.8762C75.7693 16.3074 71.2459 11.7842 65.6773 11.7842H21.4553C15.8865 11.7842 11.3633 16.3076 11.3633 21.8762V86.3762C11.3633 91.945 15.8867 96.4682 21.4553 96.4682L49.5843 96.4822C50.6531 96.4822 51.5296 95.6197 51.5296 94.5369C51.5296 93.4775 50.6624 92.615 49.5843 92.6057L49.5841 92.6058Z" fill="#0C15E7"/>
<path d="M59.7001 54.9708C59.7001 56.0396 60.5626 56.9161 61.6454 56.9161C62.7235 56.9161 63.5907 56.0536 63.5907 54.9708V34.0928C63.5907 33.024 62.7282 32.1475 61.6454 32.1475H49.7394C48.6706 32.1475 47.7941 33.01 47.7941 34.0928V68.4478H39.4082V50.3868C39.4082 49.318 38.5457 48.4415 37.4629 48.4415L25.5609 48.4461C24.4921 48.4461 23.6156 49.3086 23.6156 50.3914V68.4524H20.9531C19.8843 68.4524 19.0078 69.3149 19.0078 70.3977C19.0078 71.4665 19.8703 72.343 20.9531 72.343H49.7391C50.8079 72.343 51.6844 71.4805 51.6844 70.3977V36.0237H59.7141V54.9708L59.7001 54.9708ZM27.5061 68.4468V52.3308H35.5358V68.4468H27.5061Z" fill="#0C15E7"/>
<path d="M83.7611 72.2158C78.2064 72.2158 73.6831 76.7392 73.6831 82.2938C73.6831 87.8484 78.2065 92.3718 83.7611 92.3718C89.3157 92.3718 93.8391 87.8484 93.8391 82.2938C93.8391 76.7392 89.3157 72.2158 83.7611 72.2158ZM83.7611 88.5138C80.3392 88.5138 77.5549 85.7294 77.5549 82.3076C77.5549 78.8858 80.3393 76.1014 83.7611 76.1014C87.1829 76.1014 89.9673 78.8858 89.9673 82.3076C89.9626 85.7295 87.1782 88.5138 83.7611 88.5138Z" fill="#DD085F"/>
<path d="M107.02 87.3371L107.006 87.323L102.229 84.5621C102.323 83.8074 102.375 83.0387 102.375 82.2933C102.375 81.5479 102.328 80.7933 102.229 80.0386L107.029 77.2683C108.567 76.3542 109.106 74.3621 108.215 72.8058L104.207 65.8824C103.322 64.3355 101.315 63.7824 99.7309 64.6683L94.9543 67.4292C93.7402 66.5058 92.4231 65.7511 91.0309 65.1604V59.6526C91.0309 57.8385 89.5684 56.3667 87.7543 56.3667H79.7481C77.9481 56.3667 76.4715 57.8433 76.4715 59.6526V65.1604C75.0793 65.7463 73.7715 66.5057 72.5481 67.4292L67.7481 64.6589C66.1778 63.7823 64.1856 64.3214 63.295 65.873L59.2872 72.8105C58.4012 74.3574 58.9403 76.3496 60.4872 77.273L65.2638 80.0339C65.17 80.7886 65.1184 81.548 65.1184 82.2886C65.1184 83.0339 65.1653 83.8027 65.2638 84.5574L60.4638 87.3277C58.9263 88.2418 58.3872 90.2339 59.2779 91.7902L63.2857 98.7136C64.1716 100.26 66.1638 100.814 67.7623 99.9277L72.5482 97.1574C73.7482 98.0715 75.056 98.8262 76.4623 99.4121V104.943C76.4623 106.743 77.9248 108.22 79.7389 108.22H87.7451C89.5451 108.22 91.0217 106.757 91.0217 104.943V99.4214C92.3998 98.8355 93.7217 98.0761 94.9358 97.1667L99.7499 99.937C101.32 100.814 103.312 100.26 104.203 98.7229L108.211 91.7854C109.097 90.2385 108.567 88.2463 107.02 87.337L107.02 87.3371ZM101.142 96.2621L95.7185 93.1402C94.9966 92.7183 94.0966 92.8167 93.4732 93.3698C92.0201 94.6401 90.2951 95.6387 88.481 96.2387C87.6888 96.5012 87.1498 97.2465 87.1498 98.0762V104.329H80.3576V98.0762C80.3576 97.2465 79.8279 96.5059 79.0357 96.2387C77.1654 95.6012 75.4826 94.6449 74.0435 93.3606C73.4201 92.8074 72.506 92.7137 71.7888 93.1309L66.3654 96.2621L62.9716 90.384L68.3857 87.2621C69.1076 86.8402 69.4779 86.0246 69.3232 85.209C69.131 84.2387 69.0373 83.2543 69.0373 82.2934C69.0373 81.3325 69.131 80.3856 69.3232 79.3872C69.4779 78.5715 69.1076 77.756 68.3857 77.3341L62.9716 74.2122L66.3654 68.3341L71.7795 71.456C72.5014 71.8778 73.4014 71.7794 74.0248 71.2403C75.5107 69.9325 77.2029 68.9622 79.0404 68.3481C79.8326 68.0856 80.3623 67.3403 80.3623 66.5106V60.2575H87.1545V66.5106C87.1545 67.3497 87.6936 68.095 88.4857 68.3481C90.3326 68.9622 92.0154 69.9184 93.4779 71.2262C94.1014 71.7794 95.0154 71.8731 95.7326 71.4559L101.147 68.334L104.555 74.2121L99.1404 77.334C98.4185 77.7559 98.0482 78.5715 98.2029 79.3871C98.3951 80.3715 98.4889 81.3183 98.4889 82.2933C98.4889 83.2543 98.3951 84.2245 98.2029 85.2089C98.0482 86.0245 98.4185 86.8401 99.1404 87.262L104.555 90.3839L101.142 96.2621Z" fill="#DD085F"/>
</svg>
